<svg width="204" height="188" viewBox="0 0 204 188" fill="none" xmlns="http://www.w3.org/2000/svg">
<path d="M94.7489 185.032C85.2238 186.116 75.5786 185.312 66.364 182.668C57.1494 180.024 48.5459 175.59 41.0446 169.621C33.5434 163.652 27.2914 156.263 22.6455 147.878C17.9996 139.492 15.0508 130.274 13.9675 120.749" stroke="#40C3ED" stroke-width="5" stroke-linecap="round"/>
<path d="M13.7875 114.723C14.1792 114.326 14.8207 114.326 15.2125 114.723L25.3814 125.048C26.004 125.68 25.5561 126.75 24.6689 126.75H4.33109C3.44385 126.75 2.99605 125.68 3.61863 125.048L13.7875 114.723Z" fill="#40C3ED"/>
<path d="M110.251 2.96755C119.776 1.88429 129.421 2.68775 138.636 5.33205C147.851 7.97635 156.454 12.4097 163.955 18.379C171.457 24.3483 177.709 31.7366 182.355 40.1221C187 48.5076 189.949 57.726 191.032 67.2511" stroke="#40C3ED" stroke-width="5" stroke-linecap="round"/>
<path d="M190.212 74.2766C189.821 74.6743 189.179 74.6743 188.788 74.2766L178.619 63.9517C177.996 63.3196 178.444 62.25 179.331 62.25H199.669C200.556 62.25 201.004 63.3196 200.381 63.9517L190.212 74.2766Z" fill="#40C3ED"/>
</svg>
